<?xml version="1.0" encoding="UTF-8" ?>
<!DOCTYPE svg PUBLIC "-//W3C//DTD SVG 1.1//EN" "http://www.w3.org/Graphics/SVG/1.1/DTD/svg11.dtd">
<svg width="1000pt" height="403pt" viewBox="0 0 1000 403" version="1.1" xmlns="http://www.w3.org/2000/svg">
<g id="#ffffffff">
</g>
<g id="#bf0811ff">
<path fill="#bf0811" opacity="1.00" d=" M 942.65 44.41 C 946.48 43.26 950.49 42.51 954.09 40.68 C 954.84 40.74 956.34 40.85 957.09 40.91 C 956.00 41.15 954.90 41.38 953.84 41.64 C 953.57 41.83 953.04 42.22 952.77 42.41 C 737.78 134.87 522.77 227.34 307.78 319.81 C 283.44 330.37 259.04 340.93 233.72 348.95 C 209.50 356.74 184.55 362.67 159.13 364.59 C 151.34 366.50 143.26 365.41 135.33 365.55 C 135.41 365.32 135.55 364.85 135.62 364.61 C 114.76 363.66 93.63 357.77 76.67 345.24 C 59.02 332.18 45.92 312.58 42.12 290.81 C 37.13 263.69 42.97 235.84 52.24 210.28 C 63.24 180.23 79.98 152.62 98.94 126.96 C 118.61 100.27 140.60 75.41 162.75 50.78 C 165.03 48.14 167.25 45.43 169.93 43.17 C 159.99 58.69 152.18 75.52 145.90 92.83 C 137.70 116.16 132.49 141.45 136.95 166.13 C 140.12 184.03 149.80 200.69 164.02 212.06 C 177.90 223.85 196.22 228.75 214.06 230.14 C 232.77 231.51 251.59 229.61 269.97 226.04 C 285.12 223.20 299.90 218.76 314.78 214.80 C 524.07 158.00 733.36 101.21 942.65 44.41 Z" />
</g>
</svg>
