<?xml version="1.0" encoding="UTF-8" ?>
<!DOCTYPE svg PUBLIC "-//W3C//DTD SVG 1.1//EN" "http://www.w3.org/Graphics/SVG/1.1/DTD/svg11.dtd">
<svg width="566pt" height="398pt" viewBox="0 0 566 398" version="1.1" xmlns="http://www.w3.org/2000/svg">
<g id="#ffffffff">
</g>
<g id="#e12324ff">
<path fill="#e12324" opacity="1.00" d=" M 531.17 45.28 C 532.76 44.82 534.39 44.49 536.02 44.21 C 461.72 78.78 387.47 113.47 313.23 148.20 C 288.17 159.71 263.25 171.52 238.28 183.21 C 214.31 194.18 190.66 206.11 165.57 214.39 C 144.93 220.94 122.78 225.11 101.21 221.14 C 88.23 218.82 75.71 211.68 68.83 200.17 C 64.71 193.47 62.46 185.73 61.51 177.96 C 61.52 172.94 60.07 167.95 61.18 162.96 C 61.67 150.56 64.93 138.46 68.85 126.74 C 79.54 96.88 97.90 69.29 122.98 49.65 C 116.89 66.48 110.07 83.80 111.11 102.04 C 111.61 114.91 116.40 128.05 125.97 136.95 C 134.01 144.35 145.19 147.80 156.00 147.64 C 169.27 148.05 182.21 144.45 194.92 141.08 C 200.76 140.56 205.96 137.70 211.57 136.28 C 247.11 126.39 282.83 117.05 318.12 106.28 L 318.90 105.73 C 319.48 105.63 320.63 105.41 321.20 105.31 C 370.42 89.57 420.21 75.62 470.11 62.20 C 490.46 56.55 510.89 51.16 531.17 45.28 Z" />
<path fill="#e12324" opacity="1.00" d=" M 364.53 260.84 C 372.08 259.48 380.17 259.72 387.25 262.89 C 393.94 265.84 398.87 272.59 399.24 279.96 C 399.79 295.30 399.76 310.67 399.29 326.01 C 399.12 332.99 395.01 339.63 388.92 343.00 C 381.66 347.01 372.92 347.45 364.90 345.98 C 357.90 344.75 351.27 340.48 348.14 333.96 C 345.63 329.38 346.68 324.01 345.81 319.06 C 345.65 308.70 345.67 298.32 345.80 287.96 C 346.62 282.84 345.67 277.35 348.21 272.62 C 351.11 266.13 357.78 262.21 364.53 260.84 M 370.18 275.88 C 369.31 278.13 369.30 280.59 369.19 282.96 C 369.19 295.97 369.21 308.98 369.18 321.99 C 369.25 325.01 369.29 328.09 370.05 331.04 C 371.37 332.94 373.86 332.37 375.51 331.28 C 376.03 328.56 376.41 325.81 376.35 323.04 C 376.34 309.02 376.37 295.00 376.33 280.98 C 376.12 278.84 376.36 276.08 374.53 274.58 C 373.00 274.37 370.81 274.04 370.18 275.88 Z" />
<path fill="#e12324" opacity="1.00" d=" M 158.50 265.65 C 166.50 259.43 177.48 259.34 187.05 260.87 C 193.34 262.22 200.84 265.17 202.65 272.05 C 203.75 277.01 204.21 282.19 203.70 287.26 C 196.70 287.18 189.69 287.17 182.69 287.26 C 180.76 283.80 182.49 279.53 181.44 275.79 C 179.99 273.39 175.99 274.15 175.20 276.77 C 174.00 281.02 174.25 286.84 178.46 289.40 C 186.60 294.77 196.19 298.72 202.25 306.67 C 206.58 314.37 206.14 323.77 205.06 332.25 C 204.02 339.40 197.12 343.60 190.71 345.35 C 181.62 347.67 171.46 347.34 163.05 342.90 C 159.05 340.71 155.55 337.15 154.54 332.58 C 153.19 326.73 152.84 320.58 153.59 314.63 C 160.08 314.95 166.58 314.64 173.08 314.77 C 174.09 314.54 174.63 315.50 175.33 316.00 C 175.32 320.65 174.97 325.35 175.56 329.98 C 175.65 331.77 177.81 331.89 179.04 332.57 C 181.72 332.09 183.47 329.75 183.41 327.06 C 183.49 322.96 183.68 317.77 179.94 315.11 C 173.24 310.00 165.51 306.35 159.01 300.97 C 152.85 295.37 151.85 286.28 152.78 278.46 C 153.14 273.71 154.52 268.66 158.50 265.65 Z" />
<path fill="#e12324" opacity="1.00" d=" M 60.63 262.33 C 61.99 261.70 63.52 261.73 65.00 261.75 C 71.46 261.84 77.92 261.75 84.38 261.80 C 84.39 284.87 84.49 307.93 84.32 330.99 C 84.55 335.69 82.24 340.58 77.99 342.81 C 73.69 345.06 68.68 344.79 63.98 344.90 C 59.91 344.82 55.81 345.24 51.78 344.52 C 51.84 339.84 51.84 335.15 51.78 330.47 C 54.78 330.02 59.33 330.81 60.48 327.12 C 60.95 321.44 60.66 315.74 60.74 310.05 C 60.67 294.14 60.89 278.23 60.63 262.33 Z" />
<path fill="#e12324" opacity="1.00" d=" M 92.67 262.26 L 93.01 261.87 C 100.69 261.65 108.38 261.82 116.06 261.81 C 116.09 283.22 116.02 304.62 116.10 326.03 C 116.32 327.91 115.88 330.20 117.31 331.71 C 118.65 332.84 120.21 332.06 121.65 331.63 C 122.05 329.76 122.38 327.87 122.41 325.97 C 122.68 304.55 122.17 283.11 122.66 261.70 C 130.33 261.86 138.01 261.75 145.68 261.78 C 145.69 283.18 145.84 304.58 145.60 325.98 C 146.02 333.40 141.27 340.50 134.71 343.71 C 128.69 346.81 121.67 347.04 115.05 346.49 C 107.94 345.62 100.43 342.93 96.13 336.87 C 93.19 332.89 92.70 327.75 92.66 322.96 C 92.61 302.73 92.55 282.49 92.67 262.26 Z" />
<path fill="#e12324" opacity="1.00" d=" M 208.78 261.81 C 225.71 261.75 242.64 261.80 259.57 261.78 C 259.67 267.36 259.61 272.94 259.60 278.52 C 255.11 278.59 250.61 278.59 246.12 278.53 C 245.73 300.64 246.10 322.76 245.94 344.88 C 238.12 344.91 230.30 344.94 222.49 344.86 C 222.30 322.77 222.52 300.68 222.38 278.59 C 217.83 278.49 213.27 278.71 208.73 278.43 C 208.80 272.89 208.71 267.35 208.78 261.81 Z" />
<path fill="#e12324" opacity="1.00" d=" M 284.43 261.78 C 293.61 261.83 302.80 261.69 311.99 261.85 C 318.64 262.58 325.99 262.14 331.66 266.31 C 335.11 268.77 337.50 272.75 337.75 277.01 C 338.76 286.63 338.32 296.33 338.43 305.99 C 338.28 315.60 338.97 325.32 337.26 334.83 C 335.35 342.55 326.45 344.92 319.46 344.82 C 307.80 345.03 296.14 344.81 284.48 344.94 C 284.27 317.22 284.38 289.50 284.43 261.78 M 307.64 276.37 C 307.64 294.42 307.64 312.47 307.64 330.53 C 309.57 330.35 311.47 329.91 313.33 329.34 C 315.12 325.12 314.56 320.45 314.70 315.99 C 314.56 303.96 314.98 291.91 314.47 279.90 C 314.33 276.40 310.31 276.16 307.64 276.37 Z" />
<path fill="#e12324" opacity="1.00" d=" M 427.65 262.44 C 428.70 261.93 429.82 261.71 431.00 261.76 C 437.71 261.79 444.42 261.77 451.14 261.78 C 451.15 289.49 451.15 317.20 451.14 344.92 C 443.31 344.66 435.40 345.47 427.63 344.49 C 427.84 317.15 427.79 289.79 427.65 262.44 Z" />
<path fill="#e12324" opacity="1.00" d=" M 456.41 278.57 C 456.41 272.95 456.17 267.32 456.54 261.71 C 473.46 261.89 490.37 261.70 507.28 261.80 C 507.34 267.35 507.27 272.90 507.33 278.45 C 502.72 278.66 498.10 278.56 493.49 278.52 C 493.28 300.65 493.48 322.78 493.39 344.91 C 485.50 344.65 477.52 345.46 469.68 344.49 C 469.79 322.50 469.83 300.51 469.66 278.52 C 465.24 278.59 460.83 278.56 456.41 278.57 Z" />
</g>
</svg>
